<svg width="18" height="18" viewBox="0 0 18 18" fill="none" xmlns="http://www.w3.org/2000/svg">
<path d="M0 15.3V13.5C0 13.0029 0.402944 12.6 0.9 12.6C1.39706 12.6 1.8 13.0029 1.8 13.5V15.3C1.8 15.5387 1.89489 15.7675 2.06367 15.9363C2.23246 16.1051 2.46131 16.2 2.7 16.2H4.5C4.99706 16.2 5.4 16.6029 5.4 17.1C5.4 17.5971 4.99706 18 4.5 18H2.7C1.98391 18 1.29736 17.7153 0.791016 17.209C0.284667 16.7026 0 16.0161 0 15.3ZM16.2 15.3V13.5C16.2 13.0029 16.6029 12.6 17.1 12.6C17.5971 12.6 18 13.0029 18 13.5V15.3C18 16.0161 17.7153 16.7026 17.209 17.209C16.7026 17.7153 16.0161 18 15.3 18H13.5C13.0029 18 12.6 17.5971 12.6 17.1C12.6 16.6029 13.0029 16.2 13.5 16.2H15.3C15.5387 16.2 15.7675 16.1051 15.9363 15.9363C16.1051 15.7675 16.2 15.5387 16.2 15.3ZM13.5 8.1C13.9971 8.1 14.4 8.50294 14.4 9C14.4 9.49706 13.9971 9.9 13.5 9.9H4.5C4.00294 9.9 3.6 9.49706 3.6 9C3.6 8.50294 4.00294 8.1 4.5 8.1H13.5ZM0 4.5V2.7C0 1.98392 0.284667 1.29736 0.791016 0.791016C1.29736 0.284667 1.98392 0 2.7 0H4.5C4.99706 0 5.4 0.402944 5.4 0.9C5.4 1.39706 4.99706 1.8 4.5 1.8H2.7C2.4613 1.8 2.23245 1.89489 2.06367 2.06367C1.89489 2.23245 1.8 2.4613 1.8 2.7V4.5C1.8 4.99706 1.39706 5.4 0.9 5.4C0.402944 5.4 0 4.99706 0 4.5ZM16.2 4.5V2.7C16.2 2.46131 16.1051 2.23246 15.9363 2.06367C15.7675 1.89489 15.5387 1.8 15.3 1.8H13.5C13.0029 1.8 12.6 1.39706 12.6 0.9C12.6 0.402944 13.0029 0 13.5 0H15.3C16.0161 0 16.7026 0.284667 17.209 0.791016C17.7153 1.29736 18 1.98391 18 2.7V4.5C18 4.99706 17.5971 5.4 17.1 5.4C16.6029 5.4 16.2 4.99706 16.2 4.5Z" fill="#AA1D40"/>
</svg>
