<svg xmlns="http://www.w3.org/2000/svg" viewBox="0 0 64 64" width="64" height="64">
  <rect width="64" height="64" rx="14" fill="#F3C4D0" />
  <!-- Peony: layered rounded petals, dark outer to light center -->
  <g fill="#C24E77">
    <ellipse cx="32" cy="19" rx="8" ry="14" transform="rotate(0 32 32)" />
    <ellipse cx="32" cy="19" rx="8" ry="14" transform="rotate(45 32 32)" />
    <ellipse cx="32" cy="19" rx="8" ry="14" transform="rotate(90 32 32)" />
    <ellipse cx="32" cy="19" rx="8" ry="14" transform="rotate(135 32 32)" />
    <ellipse cx="32" cy="19" rx="8" ry="14" transform="rotate(180 32 32)" />
    <ellipse cx="32" cy="19" rx="8" ry="14" transform="rotate(225 32 32)" />
    <ellipse cx="32" cy="19" rx="8" ry="14" transform="rotate(270 32 32)" />
    <ellipse cx="32" cy="19" rx="8" ry="14" transform="rotate(315 32 32)" />
  </g>
  <g fill="#D96A8C">
    <ellipse cx="32" cy="23" rx="6.5" ry="11" transform="rotate(22.5 32 32)" />
    <ellipse cx="32" cy="23" rx="6.5" ry="11" transform="rotate(67.5 32 32)" />
    <ellipse cx="32" cy="23" rx="6.5" ry="11" transform="rotate(112.5 32 32)" />
    <ellipse cx="32" cy="23" rx="6.5" ry="11" transform="rotate(157.5 32 32)" />
    <ellipse cx="32" cy="23" rx="6.5" ry="11" transform="rotate(202.5 32 32)" />
    <ellipse cx="32" cy="23" rx="6.5" ry="11" transform="rotate(247.5 32 32)" />
    <ellipse cx="32" cy="23" rx="6.5" ry="11" transform="rotate(292.5 32 32)" />
    <ellipse cx="32" cy="23" rx="6.5" ry="11" transform="rotate(337.5 32 32)" />
  </g>
  <g fill="#E38AA6">
    <ellipse cx="32" cy="26.5" rx="5" ry="8" transform="rotate(0 32 32)" />
    <ellipse cx="32" cy="26.5" rx="5" ry="8" transform="rotate(45 32 32)" />
    <ellipse cx="32" cy="26.5" rx="5" ry="8" transform="rotate(90 32 32)" />
    <ellipse cx="32" cy="26.5" rx="5" ry="8" transform="rotate(135 32 32)" />
    <ellipse cx="32" cy="26.5" rx="5" ry="8" transform="rotate(180 32 32)" />
    <ellipse cx="32" cy="26.5" rx="5" ry="8" transform="rotate(225 32 32)" />
    <ellipse cx="32" cy="26.5" rx="5" ry="8" transform="rotate(270 32 32)" />
    <ellipse cx="32" cy="26.5" rx="5" ry="8" transform="rotate(315 32 32)" />
  </g>
  <circle cx="32" cy="32" r="6" fill="#F3CBDA" />
  <circle cx="32" cy="32" r="2.6" fill="#FBE8EF" />
</svg>
